<svg width="54" height="54" viewBox="0 0 54 54" fill="none" xmlns="http://www.w3.org/2000/svg">
<path d="M81.7959 31.6531C81.7959 48.5823 68.072 62.3061 51.1428 62.3061C34.2136 62.3061 20.4897 48.5823 20.4897 31.6531C20.4897 14.7238 34.2136 1 51.1428 1C68.072 1 81.7959 14.7238 81.7959 31.6531Z" stroke="#84A59D" stroke-width="2"/>
<path d="M43.2775 19.1837C42.5869 19.1837 42.1265 19.8743 42.1265 20.3347V26.0898H39.8245V20.3347C39.8245 19.6441 39.3641 19.1837 38.6735 19.1837C37.9829 19.1837 37.5224 19.8743 37.5224 20.3347V26.0898H35.2204V20.3347C35.2204 19.6441 34.76 19.1837 34.0694 19.1837C33.3788 19.1837 32.9184 19.8743 32.9184 20.3347V27.9314C32.9184 30.0033 34.5298 31.6147 36.3714 31.8449V47.9592C36.3714 49.3404 37.2922 50.2612 38.6735 50.2612C40.0547 50.2612 40.9755 49.3404 40.9755 47.9592V31.8449C42.8171 31.6147 44.4286 30.0033 44.4286 27.9314V20.3347C44.4286 19.8743 43.9682 19.1837 43.2775 19.1837ZM47.8816 20.3347V34.147H50.1837V47.9592C50.1837 49.3404 51.1045 50.2612 52.4857 50.2612C53.8669 50.2612 54.7878 49.3404 54.7878 47.9592V13.4286C50.8743 13.4286 47.8816 16.4212 47.8816 20.3347ZM63.9959 18.0327C60.7731 18.0327 58.2408 21.4857 58.2408 25.6294C58.0106 28.3919 59.3918 30.9241 61.6939 32.5355V47.9592C61.6939 49.3404 62.6147 50.2612 63.9959 50.2612C65.3771 50.2612 66.298 49.3404 66.298 47.9592V32.5355C68.6 30.9241 69.9812 28.3919 69.751 25.6294C69.751 21.4857 67.2188 18.0327 63.9959 18.0327Z" fill="#F6BD60"/>
<path d="M22.1741 79.7553V86.3061H20.2874V69.0561H24.9397C26.7522 69.0561 28.1624 69.5053 29.1702 70.4038C30.1858 71.3022 30.6936 72.5639 30.6936 74.1889C30.6936 75.8686 30.0999 77.2319 28.9124 78.2788C27.7249 79.3257 26.2483 79.8178 24.4827 79.7553H22.1741ZM22.1741 70.8139V77.9858H24.3421C25.7561 77.9858 26.8343 77.6655 27.5765 77.0249C28.3265 76.3842 28.7015 75.4702 28.7015 74.2827C28.7015 71.9702 27.3343 70.8139 24.5999 70.8139H22.1741ZM42.8577 86.3061H33.9983V69.0561H35.885V84.5717H42.8577V86.3061ZM58.7483 86.3061H56.6507L54.7757 81.4077H47.3811L45.635 86.3061H43.5257L50.1585 69.0561H52.0804L58.7483 86.3061ZM54.1311 79.6733L51.3772 72.2202C51.2757 71.9467 51.1897 71.5678 51.1194 71.0835H51.0608C50.9749 71.6225 50.8811 72.0014 50.7796 72.2202L48.0491 79.6733H54.1311ZM71.3929 70.8022H66.4124V86.3061H64.5022V70.8022H59.5452V69.0561H71.3929V70.8022ZM83.2054 86.3061H74.1468V69.0561H82.8186V70.8022H76.0335V76.6616H82.303V78.396H76.0335V84.5717H83.2054V86.3061Z" fill="#84A59D"/>
</svg>
